<?xml version="1.0" encoding="UTF-8"?>
<svg width="400" height="120" viewBox="0 0 400 120" fill="none" xmlns="http://www.w3.org/2000/svg">
  <!-- Colibri -->
  <path d="M60 40 
           C 70 30, 85 25, 100 30
           C 110 20, 125 15, 140 25
           L 130 35
           C 120 45, 110 50, 100 45
           C 90 55, 80 60, 70 50
           Z" 
        fill="#003366"/>
  
  <!-- Feuilles -->
  <path d="M70 70
           C 85 55, 100 50, 115 55
           C 95 65, 85 75, 75 80
           Z" 
        fill="#FF9933"/>
  <path d="M90 75
           C 105 60, 120 55, 135 60
           C 115 70, 105 80, 95 85
           Z" 
        fill="#FF9933"/>

  <!-- Texte -->
  <text x="160" y="45" font-family="Arial" font-size="24" fill="#666666" font-weight="500">Collectivité</text>
  <text x="160" y="75" font-family="Arial" font-size="24" fill="#666666" font-weight="500">Territoriale</text>
  <text x="160" y="105" font-family="Arial" font-size="24" fill="#666666" font-weight="500">de <tspan fill="#003366" font-weight="600">Martinique</tspan></text>

  <!-- Petit détail du bec -->
  <path d="M140 25 L 145 22" stroke="#003366" stroke-width="2"/>
</svg> 