<?xml version="1.0" encoding="UTF-8"?>
<svg width="200" height="200" viewBox="0 0 200 200" fill="none" xmlns="http://www.w3.org/2000/svg">
  <rect width="200" height="200" fill="white"/>
  <path d="M100 60C120 60 130 40 130 30C130 20 120 10 100 10C80 10 70 20 70 30C70 40 80 60 100 60Z" fill="#003366"/>
  <path d="M160 120C180 120 190 100 190 90C190 80 180 70 160 70C140 70 130 80 130 90C130 100 140 120 160 120Z" fill="#FF9933"/>
  <path d="M40 120C60 120 70 100 70 90C70 80 60 70 40 70C20 70 10 80 10 90C10 100 20 120 40 120Z" fill="#FF9933"/>
  <path d="M100 180C140 180 160 150 160 130H40C40 150 60 180 100 180Z" fill="#003366"/>
</svg> 